<svg width="154" height="247" viewBox="0 0 154 247" fill="none" xmlns="http://www.w3.org/2000/svg">
<path d="M39.6442 228.447C35.431 223.896 34.4106 220.221 32.1442 214.447C26.6309 200.402 25.6442 176.447 25.6442 176.447L24.6445 143.947C24.6445 143.947 24.8825 133.956 25.6442 131.947C27.163 127.943 34.0545 126.217 38.1445 124.947C52.6445 120.447 56.5312 120.7 69.6445 119.947C84.1345 119.116 99.6442 120.947 107.145 122.447C114.645 123.947 124.144 125.947 126.644 130.447C129.145 134.947 127.645 161.447 127.645 161.447C127.645 161.447 127.923 193.54 120.645 211.447C117.652 218.811 115.734 222.797 110.144 228.447C104.796 233.854 100.33 235.455 93.1442 237.947C79.6771 242.618 70.1113 242.618 56.6442 237.947C49.4589 235.455 44.8103 234.029 39.6442 228.447Z" stroke="black" stroke-width="1.4"/>
<path d="M50.009 180.595C49.1466 180.648 48.4501 180.53 47.9195 180.242C47.3969 179.953 47.0047 179.504 46.743 178.895C46.4887 178.278 46.333 177.502 46.2758 176.567C46.2185 175.633 46.2779 174.836 46.4539 174.176C46.6373 173.508 46.9703 172.99 47.4528 172.624C47.9433 172.257 48.6198 172.048 49.4822 171.995C49.7936 171.976 50.0987 171.985 50.3976 172.023C50.7044 172.06 50.9581 172.145 51.1585 172.277C51.367 172.408 51.4795 172.61 51.4961 172.881C51.5084 173.081 51.4468 173.253 51.3114 173.398C51.1759 173.542 50.9485 173.624 50.6291 173.644C50.4535 173.655 50.2566 173.647 50.0386 173.62C49.82 173.585 49.567 173.577 49.2796 173.594C48.7206 173.628 48.3633 173.879 48.2075 174.345C48.0592 174.803 48.0142 175.507 48.0724 176.457C48.1306 177.408 48.2882 178.083 48.5452 178.484C48.8017 178.877 49.1576 179.06 49.6127 179.032C50.5709 178.973 51.0253 178.541 50.9759 177.734C50.9534 177.367 50.9939 177.112 51.0974 176.969L50.2597 177.033C50.0126 177.056 49.8181 177.02 49.6759 176.924C49.5418 176.828 49.4669 176.652 49.4513 176.397C49.4356 176.141 49.4885 175.958 49.6099 175.846C49.7393 175.734 49.9278 175.67 50.1753 175.655L51.4449 175.577C51.7244 175.56 51.9342 175.584 52.0743 175.647C52.214 175.703 52.3104 175.837 52.3635 176.05C52.4242 176.255 52.4674 176.569 52.4934 176.992C52.5389 177.735 52.5014 178.366 52.381 178.886C52.2606 179.407 52.0128 179.811 51.6377 180.098C51.2706 180.385 50.7277 180.551 50.009 180.595ZM54.5841 180.326C54.0092 180.362 53.7051 180.108 53.6719 179.565L53.3938 175.025C53.36 174.474 53.6306 174.181 54.2055 174.146C54.493 174.128 54.7045 174.18 54.8401 174.299C54.9752 174.411 55.0513 174.607 55.0684 174.887C55.196 174.614 55.3876 174.406 55.6433 174.262C55.9065 174.11 56.2177 174.023 56.5771 174.001C57.2638 173.959 57.6255 174.237 57.6622 174.836C57.6759 175.059 57.6023 175.232 57.4415 175.354C57.2806 175.476 57.0086 175.549 56.6253 175.573C56.25 175.596 55.9567 175.65 55.7455 175.735C55.5339 175.812 55.3897 175.945 55.3131 176.134C55.2441 176.315 55.2198 176.573 55.2403 176.908L55.3966 179.459C55.4299 180.002 55.1591 180.291 54.5841 180.326ZM60.8208 179.944C59.9664 179.997 59.2767 179.794 58.7518 179.338C58.2269 178.881 57.9312 178.11 57.8647 177.024C57.7976 175.93 57.997 175.128 58.4627 174.619C58.9279 174.101 59.5878 173.816 60.4422 173.764C61.2966 173.712 61.9862 173.914 62.5111 174.371C63.0355 174.819 63.3313 175.591 63.3983 176.685C63.4648 177.771 63.2655 178.572 62.8002 179.09C62.335 179.607 61.6752 179.892 60.8208 179.944ZM60.7327 178.507C60.9563 178.493 61.1413 178.438 61.2876 178.341C61.4335 178.236 61.539 178.061 61.6041 177.816C61.6773 177.572 61.7004 177.229 61.6735 176.79C61.6466 176.351 61.5819 176.014 61.4794 175.78C61.3849 175.546 61.2591 175.389 61.102 175.31C60.9444 175.224 60.7538 175.188 60.5302 175.201C60.3146 175.214 60.1299 175.274 59.9761 175.379C59.8297 175.477 59.72 175.648 59.6468 175.893C59.5817 176.137 59.5625 176.479 59.5894 176.918C59.6163 177.357 59.6771 177.694 59.7716 177.929C59.8741 178.163 60.0041 178.323 60.1617 178.41C60.3268 178.488 60.5171 178.52 60.7327 178.507ZM66.8134 179.577C66.478 179.598 66.2087 179.518 66.0053 179.338C65.8019 179.158 65.6064 178.846 65.4188 178.4L63.9987 174.844C63.9216 174.633 63.8802 174.479 63.8743 174.383C63.8601 174.152 63.9317 173.947 64.0891 173.769C64.254 173.582 64.4643 173.481 64.7198 173.466C64.9194 173.454 65.09 173.491 65.2316 173.579C65.3812 173.666 65.4851 173.792 65.5433 173.956L66.9131 177.672C67.1937 177.149 67.3849 176.673 67.4867 176.242C67.5965 175.81 67.6363 175.347 67.6059 174.852L67.5314 174.027C67.5186 173.819 67.592 173.642 67.7513 173.496C67.9102 173.342 68.1134 173.258 68.3609 173.243C68.5047 173.234 68.6356 173.278 68.7538 173.375C68.8719 173.472 68.9907 173.645 69.1102 173.894C69.1928 174.065 69.2866 174.288 69.3916 174.562C69.5045 174.836 69.6433 175.204 69.8079 175.667C69.98 176.121 70.1928 176.717 70.4464 177.455C70.7068 177.127 70.9029 176.73 71.0348 176.265C71.1661 175.792 71.193 175.249 71.1154 174.637L71.0168 173.813C70.9961 173.606 71.0694 173.429 71.2368 173.283C71.4116 173.128 71.6268 173.043 71.8823 173.027C72.3614 172.998 72.6509 173.208 72.7506 173.659C72.773 173.762 72.7923 173.881 72.8086 174.016C72.8249 174.151 72.8372 174.287 72.8455 174.423C72.8812 175.006 72.8253 175.598 72.6779 176.2C72.5379 176.794 72.3234 177.348 72.0343 177.863C71.7308 178.402 71.4616 178.783 71.2268 179.006C70.9994 179.221 70.742 179.337 70.4546 179.354C70.2629 179.366 70.0607 179.27 69.8479 179.067C69.6425 178.855 69.4443 178.562 69.2531 178.189C69.0619 177.816 68.8998 177.394 68.7666 176.921C68.7019 177.173 68.5908 177.453 68.4332 177.759C68.2832 178.056 68.1084 178.344 67.9089 178.62C67.7095 178.897 67.5111 179.126 67.3138 179.306C67.1239 179.478 66.9571 179.568 66.8134 179.577ZM76.875 178.961C76.1324 179.006 75.5707 178.864 75.1898 178.535C74.817 178.205 74.6083 177.677 74.5637 176.95L74.4111 174.459L74.0997 174.478C73.5567 174.511 73.2703 174.284 73.2405 173.797C73.2111 173.318 73.4679 173.062 74.0109 173.029L74.3223 173.01L74.2431 171.716C74.2269 171.453 74.2936 171.232 74.443 171.055C74.6004 170.877 74.8109 170.78 75.0744 170.764C75.3299 170.748 75.5384 170.815 75.6999 170.966C75.8609 171.108 75.9497 171.315 75.9664 171.587L76.0023 172.173C76.0204 172.469 75.9874 172.715 75.9034 172.913L77.0412 172.843C77.5842 172.81 77.8704 173.033 77.8997 173.512C77.9296 173.999 77.673 174.259 77.13 174.292L76.1359 174.353L76.2907 176.881C76.3054 177.12 76.3439 177.29 76.4061 177.391C76.4679 177.483 76.5626 177.525 76.6904 177.517C76.8581 177.507 76.9811 177.488 77.0595 177.459C77.1454 177.421 77.2522 177.399 77.38 177.391C77.5956 177.378 77.7697 177.407 77.9023 177.479C78.0345 177.543 78.1077 177.691 78.1219 177.923C78.1419 178.25 78.053 178.5 77.8552 178.672C77.6569 178.837 77.3302 178.933 76.875 178.961ZM81.0482 177.9C81.081 178.435 80.8179 178.719 80.2589 178.753C79.9875 178.77 79.7677 178.715 79.5997 178.589C79.4317 178.464 79.3396 178.269 79.3234 178.005L78.8648 170.519C78.8267 169.896 79.099 169.567 79.6819 169.531C80.2569 169.496 80.5634 169.79 80.6016 170.413L80.6801 171.694C80.6938 171.918 80.683 172.135 80.6478 172.346C80.6126 172.556 80.546 172.777 80.4479 173.007C80.5734 172.831 80.7457 172.7 80.9649 172.615C81.1841 172.529 81.4414 172.477 81.7368 172.459C82.2638 172.427 82.7293 172.503 83.1333 172.686C83.5373 172.87 83.8586 173.143 84.0972 173.505C84.3433 173.859 84.482 174.291 84.5133 174.802L84.6894 177.677C84.7222 178.212 84.4591 178.496 83.9001 178.53C83.6286 178.547 83.4089 178.492 83.2409 178.366C83.0728 178.24 82.9808 178.046 82.9646 177.782L82.7929 174.979C82.7699 174.604 82.6647 174.326 82.4773 174.145C82.2979 173.964 82.0564 173.882 81.753 173.901C81.4576 173.919 81.2321 174.033 81.0767 174.243C80.9207 174.445 80.854 174.73 80.8765 175.097L81.0482 177.9ZM48.115 189.515C47.8195 189.533 47.5661 189.453 47.3547 189.273C47.1434 189.094 47.0291 188.864 47.012 188.585C46.9939 188.289 47.0788 188.04 47.2667 187.836C47.4546 187.632 47.6962 187.521 47.9917 187.503C48.2951 187.484 48.5485 187.565 48.7519 187.745C48.9633 187.924 49.078 188.162 49.0961 188.457C49.1132 188.737 49.0278 188.978 48.84 189.182C48.6601 189.386 48.4184 189.497 48.115 189.515ZM49.3699 195.87C49.4027 196.405 49.1396 196.69 48.5807 196.724C48.3092 196.741 48.0897 196.69 47.9221 196.572C47.7541 196.446 47.6618 196.247 47.6452 195.976L47.3656 191.413C47.3499 191.157 47.4016 190.954 47.5205 190.802C47.6475 190.65 47.8666 190.564 48.1781 190.545C48.4895 190.526 48.7135 190.585 48.85 190.72C48.9946 190.856 49.0747 191.051 49.0903 191.307L49.3699 195.87ZM51.5622 196.542C50.9873 196.577 50.6832 196.323 50.6499 195.78L50.4738 192.905C50.4269 192.139 50.6332 191.517 51.0929 191.04C51.5606 190.562 52.1977 190.299 53.0042 190.25C53.8107 190.2 54.4711 190.384 54.9856 190.801C55.5081 191.218 55.7928 191.81 55.8398 192.577L56.0159 195.451C56.0491 195.994 55.7783 196.283 55.2034 196.318C54.6285 196.354 54.3244 196.1 54.2911 195.557L54.1209 192.778C54.0979 192.403 53.9967 192.124 53.8172 191.943C53.6373 191.754 53.3957 191.668 53.0922 191.687C52.7888 191.705 52.5594 191.82 52.4039 192.03C52.248 192.232 52.1815 192.52 52.2045 192.895L52.3747 195.674C52.408 196.217 52.1371 196.506 51.5622 196.542ZM61.8866 195.104C61.9194 195.639 61.6563 195.923 61.0974 195.957C60.8259 195.974 60.6061 195.919 60.4381 195.793C60.2701 195.667 60.178 195.473 60.1619 195.209L59.8485 190.095C59.7938 189.2 59.9882 188.515 60.4319 188.039C60.8752 187.555 61.6518 187.279 62.7617 187.211C63.5841 187.161 64.2404 187.341 64.7304 187.752C65.2284 188.162 65.5073 188.854 65.567 189.829C65.6188 190.675 65.4349 191.335 65.0151 191.81C64.6033 192.284 63.9942 192.546 63.1877 192.595C62.7326 192.623 62.4034 192.679 62.2002 192.764C62.0045 192.84 61.8843 192.972 61.8396 193.159C61.8025 193.337 61.7944 193.598 61.8155 193.942L61.8866 195.104ZM61.5668 191.649C61.6577 191.563 61.7454 191.489 61.8298 191.428C61.9137 191.359 62.0266 191.304 62.1683 191.263C62.3176 191.214 62.516 191.182 62.7635 191.167C63.1069 191.145 63.3767 191.101 63.5729 191.033C63.7686 190.957 63.9012 190.832 63.9708 190.66C64.0484 190.487 64.0774 190.24 64.0578 189.921C64.0319 189.498 63.9611 189.194 63.8456 189.008C63.7375 188.815 63.59 188.695 63.4029 188.651C63.2233 188.598 63.0058 188.579 62.7502 188.595C62.2871 188.623 61.9649 188.727 61.7835 188.906C61.6101 189.085 61.5361 189.382 61.5616 189.797C61.5797 190.093 61.5915 190.417 61.5971 190.769C61.6026 191.121 61.5925 191.415 61.5668 191.649ZM67.505 195.565C66.9301 195.6 66.626 195.346 66.5927 194.803L66.3146 190.264C66.2808 189.713 66.5514 189.42 67.1264 189.384C67.4138 189.367 67.6253 189.418 67.7609 189.538C67.896 189.65 67.9721 189.846 67.9893 190.125C68.1168 189.853 68.3085 189.645 68.5642 189.501C68.8273 189.348 69.1386 189.261 69.4979 189.239C70.1846 189.197 70.5463 189.475 70.583 190.074C70.5967 190.298 70.5231 190.471 70.3623 190.593C70.2015 190.715 69.9294 190.788 69.5461 190.811C69.1708 190.834 68.8776 190.888 68.6664 190.973C68.4547 191.05 68.3106 191.183 68.234 191.372C68.1649 191.553 68.1406 191.811 68.1612 192.146L68.3175 194.698C68.3507 195.24 68.0799 195.53 67.505 195.565ZM73.7416 195.183C72.8872 195.235 72.1976 195.033 71.6727 194.576C71.1478 194.119 70.852 193.348 70.7855 192.262C70.7185 191.168 70.9178 190.366 71.3836 189.857C71.8488 189.34 72.5086 189.055 73.363 189.002C74.2174 188.95 74.9071 189.152 75.432 189.609C75.9564 190.058 76.2521 190.829 76.3191 191.923C76.3857 193.009 76.1863 193.811 75.7211 194.328C75.2559 194.846 74.596 195.13 73.7416 195.183ZM73.6536 193.745C73.8772 193.732 74.0621 193.676 74.2085 193.579C74.3543 193.474 74.4598 193.299 74.525 193.055C74.5981 192.81 74.6213 192.468 74.5944 192.029C74.5675 191.59 74.5028 191.253 74.4002 191.019C74.3057 190.784 74.1799 190.627 74.0228 190.549C73.8652 190.462 73.6746 190.426 73.4511 190.44C73.2355 190.453 73.0507 190.512 72.8969 190.618C72.7506 190.715 72.6408 190.886 72.5677 191.131C72.5025 191.375 72.4834 191.717 72.5103 192.156C72.5372 192.596 72.5979 192.932 72.6924 193.167C72.7949 193.401 72.925 193.562 73.0826 193.648C73.2477 193.726 73.438 193.759 73.6536 193.745ZM82.9213 195.258C82.9628 195.936 82.6745 196.463 82.0563 196.837C81.438 197.212 80.534 197.436 79.3442 197.508C78.7294 197.546 78.2733 197.494 77.9761 197.352C77.6873 197.217 77.5329 196.986 77.5128 196.659C77.4987 196.427 77.553 196.268 77.6759 196.18C77.7992 196.1 77.9687 196.054 78.1843 196.041C78.344 196.031 78.4802 196.031 78.593 196.04C78.7063 196.057 78.8273 196.069 78.956 196.078C79.0932 196.093 79.2616 196.095 79.4612 196.083C80.0921 196.044 80.5403 195.968 80.8059 195.856C81.0795 195.743 81.2073 195.539 81.1892 195.243C81.174 194.996 81.062 194.802 80.853 194.663C80.6441 194.523 80.3879 194.463 80.0845 194.482C78.248 194.594 77.2697 193.672 77.1499 191.716C77.0887 190.718 77.2751 189.965 77.7088 189.457C78.1426 188.95 78.8186 188.668 79.7369 188.612C80.3438 188.575 80.8532 188.648 81.2652 188.831C81.4128 188.1 81.798 187.716 82.4208 187.678C82.7243 187.659 82.9607 187.725 83.1302 187.875C83.3072 188.016 83.4047 188.235 83.4228 188.53C83.4395 188.802 83.3716 189.002 83.2192 189.132C83.0669 189.261 82.815 189.337 82.4637 189.358C82.312 189.368 82.173 189.388 82.0467 189.42C82.4194 189.878 82.6319 190.534 82.6843 191.389C82.717 191.924 82.6643 192.372 82.5262 192.733C82.396 193.094 82.1303 193.402 81.7293 193.659C82.1374 193.779 82.4305 193.985 82.6088 194.279C82.7946 194.564 82.8988 194.89 82.9213 195.258ZM78.8747 191.61C78.9358 192.608 79.3137 193.086 80.0084 193.044C80.7031 193.001 81.0199 192.481 80.9588 191.482C80.927 190.963 80.8159 190.59 80.6255 190.361C80.4432 190.131 80.1763 190.028 79.825 190.049C79.4816 190.07 79.2295 190.206 79.0685 190.456C78.9075 190.706 78.8429 191.091 78.8747 191.61ZM85.2374 194.478C84.6624 194.514 84.3584 194.26 84.3251 193.717L84.047 189.177C84.0132 188.626 84.2838 188.333 84.8587 188.298C85.1462 188.28 85.3577 188.332 85.4933 188.452C85.6284 188.563 85.7045 188.759 85.7216 189.039C85.8492 188.766 86.0409 188.558 86.2965 188.414C86.5597 188.262 86.871 188.175 87.2303 188.153C87.917 188.111 88.2787 188.389 88.3154 188.988C88.3291 189.212 88.2555 189.384 88.0947 189.506C87.9338 189.628 87.6618 189.701 87.2785 189.725C86.9032 189.748 86.61 189.802 86.3988 189.887C86.1871 189.964 86.043 190.097 85.9664 190.286C85.8973 190.467 85.873 190.725 85.8936 191.06L86.0499 193.611C86.0831 194.154 85.8123 194.443 85.2374 194.478ZM91.8214 194.075C91.0229 194.124 90.388 194.031 89.9167 193.795C89.4534 193.559 89.1117 193.215 88.8917 192.764C88.6797 192.312 88.5553 191.787 88.5186 191.188C88.4511 190.086 88.6462 189.28 89.104 188.771C89.5612 188.254 90.2011 187.971 91.0235 187.92C91.5186 187.89 91.9629 187.947 92.3565 188.091C92.75 188.235 93.0641 188.457 93.2988 188.755C93.533 189.045 93.6635 189.41 93.6904 189.849C93.7687 191.127 92.8975 191.821 91.077 191.933L90.3823 191.975C90.4613 192.219 90.5771 192.408 90.7296 192.543C90.8897 192.669 91.1573 192.721 91.5326 192.698C91.7402 192.685 91.9072 192.663 92.0335 192.631C92.1598 192.6 92.2781 192.568 92.3884 192.538C92.5067 192.506 92.6417 192.486 92.7934 192.477C93.009 192.463 93.1832 192.493 93.3158 192.565C93.448 192.629 93.5212 192.777 93.5353 193.008C93.5554 193.336 93.4266 193.588 93.1489 193.765C92.8787 193.934 92.4362 194.037 91.8214 194.075ZM90.2441 191.094C90.3026 191.002 90.3711 190.942 90.4494 190.913C90.5273 190.876 90.6501 190.853 90.8178 190.842C91.2889 190.814 91.6096 190.75 91.7799 190.651C91.9577 190.544 92.0393 190.371 92.0246 190.131C92.006 189.828 91.908 189.601 91.7305 189.452C91.5525 189.295 91.3358 189.224 91.0803 189.239C90.7848 189.257 90.5608 189.395 90.4083 189.653C90.2558 189.911 90.2011 190.391 90.2441 191.094ZM97.0656 193.754C95.5644 193.846 94.7935 193.56 94.7529 192.898C94.7402 192.69 94.786 192.523 94.8905 192.396C94.9949 192.27 95.139 192.201 95.3226 192.189C95.4025 192.185 95.4791 192.192 95.5524 192.211C95.6332 192.223 95.7877 192.257 96.0156 192.315C96.1134 192.341 96.2431 192.366 96.4048 192.388C96.5664 192.41 96.7231 192.416 96.8748 192.407C97.1623 192.389 97.3637 192.341 97.4791 192.262C97.5945 192.183 97.647 192.059 97.6367 191.891C97.6284 191.756 97.5901 191.654 97.5219 191.586C97.4531 191.51 97.3127 191.442 97.1007 191.383C96.8887 191.324 96.5591 191.244 96.1121 191.143C95.706 191.056 95.3704 190.876 95.1053 190.604C94.8476 190.323 94.7056 189.967 94.6792 189.536C94.642 188.929 94.8332 188.452 95.2528 188.106C95.6724 187.76 96.2655 187.563 97.0321 187.516C97.607 187.481 98.063 187.533 98.4002 187.673C98.7374 187.812 98.9153 188.034 98.9339 188.337C98.9456 188.529 98.8995 188.692 98.7955 188.827C98.6916 188.961 98.5438 189.035 98.3521 189.046C98.2723 189.051 98.1757 189.045 98.0625 189.028C97.9572 189.01 97.8275 188.986 97.6733 188.956C97.5591 188.923 97.4373 188.898 97.3081 188.882C97.1869 188.865 97.0584 188.861 96.9226 188.869C96.5393 188.893 96.356 189.04 96.3726 189.312C96.3824 189.472 96.4666 189.603 96.6252 189.705C96.7832 189.8 97.0818 189.898 97.5208 189.999C98.1225 190.138 98.5721 190.347 98.8697 190.626C99.1667 190.896 99.33 191.271 99.3593 191.75C99.3936 192.309 99.2056 192.773 98.7954 193.143C98.3928 193.504 97.8162 193.708 97.0656 193.754ZM102.586 193.416C101.085 193.508 100.314 193.222 100.274 192.559C100.261 192.352 100.307 192.185 100.411 192.058C100.516 191.931 100.66 191.862 100.844 191.851C100.923 191.846 101 191.854 101.073 191.873C101.154 191.884 101.309 191.919 101.537 191.977C101.634 192.003 101.764 192.027 101.926 192.049C102.087 192.072 102.244 192.078 102.396 192.069C102.683 192.051 102.885 192.003 103 191.924C103.115 191.844 103.168 191.721 103.158 191.553C103.149 191.417 103.111 191.316 103.043 191.248C102.974 191.172 102.834 191.104 102.622 191.045C102.41 190.986 102.08 190.906 101.633 190.805C101.227 190.718 100.891 190.538 100.626 190.266C100.369 189.985 100.226 189.629 100.2 189.198C100.163 188.591 100.354 188.114 100.774 187.768C101.193 187.422 101.786 187.225 102.553 187.178C103.128 187.143 103.584 187.195 103.921 187.335C104.258 187.474 104.436 187.696 104.455 187.999C104.466 188.191 104.42 188.354 104.316 188.489C104.212 188.623 104.065 188.696 103.873 188.708C103.793 188.713 103.697 188.707 103.583 188.69C103.478 188.672 103.348 188.648 103.194 188.617C103.08 188.584 102.958 188.56 102.829 188.544C102.708 188.527 102.579 188.523 102.444 188.531C102.06 188.555 101.877 188.702 101.894 188.974C101.903 189.133 101.988 189.264 102.146 189.367C102.304 189.461 102.603 189.559 103.042 189.661C103.643 189.8 104.093 190.009 104.391 190.287C104.688 190.558 104.851 190.932 104.88 191.412C104.914 191.971 104.727 192.435 104.316 192.805C103.914 193.166 103.337 193.37 102.586 193.416ZM106.918 190.541C106.606 190.56 106.378 190.502 106.234 190.367C106.097 190.223 106.021 190.027 106.005 189.78L105.737 185.396C105.721 185.14 105.773 184.937 105.892 184.785C106.019 184.633 106.238 184.548 106.549 184.529C106.861 184.51 107.085 184.568 107.221 184.704C107.366 184.839 107.446 185.035 107.462 185.29L107.73 189.674C107.745 189.922 107.69 190.125 107.563 190.285C107.444 190.437 107.229 190.522 106.918 190.541ZM107.077 193.14C106.79 193.158 106.553 193.084 106.366 192.92C106.188 192.754 106.09 192.536 106.074 192.264C106.056 191.985 106.126 191.752 106.283 191.566C106.448 191.38 106.674 191.278 106.962 191.26C107.241 191.243 107.474 191.317 107.661 191.482C107.847 191.647 107.949 191.869 107.966 192.148C107.983 192.42 107.908 192.649 107.744 192.835C107.579 193.022 107.356 193.123 107.077 193.14Z" fill="black"/>
<path d="M25.6445 132.447C25.6445 132.447 38.9471 138.956 46.1445 140.447C58.3949 142.985 65.1462 143.5 77.6445 142.947C87.6618 142.505 93.4198 142.891 103.145 140.447C106.145 139.694 115.998 137.957 119.645 132.447C120.368 131.355 121.145 126.447 121.145 126.447" stroke="black" stroke-width="1.4"/>
<path d="M44.1582 46.4474C44.1582 46.4474 42.1209 39.2743 39.1442 36.4474C35.9624 33.4258 28.6442 32.4474 28.6442 32.4474C28.6442 32.4474 22.5705 32.8244 19.1442 34.4474C15.7544 36.0532 11.6442 40.4474 11.6442 40.4474C11.6442 40.4474 18.4807 39.3897 22.6442 40.4474C25.1045 41.0725 26.6868 41.3312 28.6442 42.9474C29.283 43.4749 29.8365 43.6783 30.1442 44.4474C30.4343 45.1726 30.1442 46.4474 30.1442 46.4474C30.1442 46.4474 16.6442 42.5245 11.6442 44.4474C6.64421 46.3704 5.56289 48.4068 4.14421 52.4474C2.97986 55.7637 4.14421 61.4474 4.14421 61.4474L15.1442 55.4474C15.1442 55.4474 21.6342 52.7124 23.1442 55.4474C23.7183 56.4872 23.6442 58.4474 23.6442 58.4474L10.1442 63.4474C10.1442 63.4474 4.09258 65.6951 2.14421 68.9474C-0.264101 72.9676 0.770061 76.4672 2.14421 80.9474C2.70812 82.786 4.14421 85.4474 4.14421 85.4474C4.14421 85.4474 6.30539 81.5803 8.14421 79.4474C10.7727 76.3986 16.1442 72.9474 16.1442 72.9474L19.1442 73.4474V76.4474C19.1442 76.4474 9.19049 81.4281 7.64421 87.4474C6.91546 90.2843 7.23 92.048 7.64421 94.9474C8.57042 101.431 15.1442 109.947 15.1442 109.947M15.1442 109.947C15.1442 109.947 27.8822 106.614 30.1442 99.9474C31.3362 96.4342 30.6495 94.1229 30.1442 90.4474C29.6474 86.8336 27.6442 81.4474 27.6442 81.4474L31.1442 78.9474C31.1442 78.9474 33.8163 83.3231 34.6442 86.4474C35.8446 90.9774 34.6442 98.4474 34.6442 98.4474C34.6442 98.4474 40.8982 95.5745 42.6442 91.9474C44.4228 88.2527 43.7529 85.3952 42.6442 81.4474C41.675 77.9964 40.1445 76.4474 38.1442 73.4474C37.1693 71.9853 36.682 69.9223 38.1442 68.9474C38.1442 68.9474 39.998 68.7052 41.1442 68.9474C45.1742 69.7992 45.329 74.044 46.6442 77.9474C48.0215 82.0352 47.6442 88.9474 47.6442 88.9474C47.6442 88.9474 54.5199 86.2976 56.1442 82.4474C57.9161 78.2475 56.134 75.0487 54.1442 70.9474C52.2118 66.9646 46.6442 62.4474 46.6442 62.4474C46.6442 62.4474 45.4016 59.1901 46.6442 57.9474C47.8869 56.7048 49.4221 57.5972 51.1442 57.9474C56.8845 59.115 60.1442 69.9474 60.1442 69.9474L61.6442 73.4474C61.6442 73.4474 64.6633 69.4393 65.6442 66.4474C67.1651 61.8089 67.3694 58.514 65.6442 53.9474C63.8849 49.2905 61.7724 46.2813 57.1442 44.4474C53.332 42.937 46.6442 44.4474 46.6442 44.4474C46.6442 44.4474 39.069 50.3021 35.1442 54.9474C28.212 63.1522 25.1838 73.672 22.6442 79.4474C20.1046 85.2229 18.1185 88.313 16.6442 94.4474C15.2231 100.36 15.1442 109.947 15.1442 109.947Z" stroke="black" stroke-width="1.4"/>
<path d="M20.1445 83.9474C20.1445 83.9474 16.9136 84.8883 15.6445 86.4474C14.7058 87.6008 14.1445 89.9474 14.1445 89.9474" stroke="black" stroke-width="1.4" stroke-linecap="round"/>
<path d="M8.64453 70.9475C8.64453 70.9475 14.8922 66.1135 19.6445 64.9475C23.0633 64.1086 28.6445 64.4475 28.6445 64.4475" stroke="black" stroke-width="1.4" stroke-linecap="round"/>
<path d="M36.1445 52.9475C36.1445 52.9475 28.3088 50.6864 23.1445 50.4475C17.6518 50.1933 9.14453 51.9475 9.14453 51.9475" stroke="black" stroke-width="1.4" stroke-linecap="round"/>
<path d="M25.6445 35.4474C25.6445 35.4474 31.3743 37.7686 34.6445 39.9474C38.0993 42.2492 42.6445 46.9474 42.6445 46.9474" stroke="black" stroke-width="1.4" stroke-linecap="round"/>
<path d="M41.1445 50.4474C41.1445 50.4474 44.7733 49.3056 47.1445 49.4474C51.8589 49.7295 57.6445 55.4474 57.6445 55.4474" stroke="black" stroke-width="1.4" stroke-linecap="round"/>
<path d="M39.6445 60.9474C39.6445 60.9474 45.9643 65.6325 48.1445 69.9474C49.2584 72.1519 50.1445 75.9474 50.1445 75.9474" stroke="black" stroke-width="1.4" stroke-linecap="round"/>
<path d="M32.6445 72.9474C32.6445 72.9474 36.4274 78.1154 37.6445 81.9474C38.1895 83.6632 38.6445 86.4474 38.6445 86.4474" stroke="black" stroke-width="1.4" stroke-linecap="round"/>
<path d="M23.6445 85.4474V92.4474" stroke="black" stroke-width="1.4" stroke-linecap="round"/>
<path d="M98.6446 24.9475C98.6446 24.9475 97.7108 19.3359 98.6446 15.9475C100.153 10.4754 103.39 8.04743 108.145 4.94745C114.177 1.01467 118.982 0.206483 126.145 0.947451C131.058 1.45575 134.12 2.08244 138.145 4.94745C141.995 7.68893 145.645 14.4475 145.645 14.4475C145.645 14.4475 136.765 13.7539 131.145 14.4475C125.551 15.1377 117.145 17.9475 117.145 17.9475C117.145 17.9475 115.513 20.1741 116.145 21.4475C116.651 22.4674 118.645 22.9475 118.645 22.9475C118.645 22.9475 135.45 16.5577 144.145 21.4475C147.283 23.2123 149.23 24.398 151.145 27.4475C154.57 32.905 151.145 43.9475 151.145 43.9475C151.145 43.9475 143.897 37.3723 138.145 35.4475C133.666 33.9487 126.145 33.9475 126.145 33.9475C126.145 33.9475 123.212 34.9239 123.145 36.4475C123.094 37.5849 124.645 38.9475 124.645 38.9475C124.645 38.9475 135.115 40.9513 141.145 43.9475C145.316 46.0201 148.752 46.4512 151.145 50.4475C154.592 56.2047 148.645 67.4474 148.645 67.4474L133.377 53.4475C133.377 53.4475 130.767 52.5168 129.645 53.4475C128.292 54.5694 129.645 57.9475 129.645 57.9475C129.645 57.9475 141.3 62.8037 144.145 69.4474C145.095 71.6677 145.475 73.0381 145.645 75.4474C146.177 83.034 136.145 92.4474 136.145 92.4474C136.145 92.4474 134.305 89.6931 132.645 88.4474C128.998 85.7118 124.783 89.1938 121.145 86.4474C120.043 85.6156 120.145 85.9474 118.645 83.9474C117.145 81.9474 118.645 76.0243 118.645 70.9474C118.645 66.8469 118.645 60.4475 118.645 60.4475C118.645 60.4475 117.088 60.1954 116.145 60.4475C113.271 61.2151 113.145 67.4474 113.145 67.4474V83.9474C113.145 83.9474 105.795 83.2135 103.145 79.9474C100.291 76.4305 101.256 72.9598 101.645 68.4474C102.127 62.8461 106.145 55.4475 106.145 55.4475C106.145 55.4475 107.415 49.7709 105.145 48.9475C102.904 48.1348 102.368 49.1708 100.145 52.4475C97.9212 55.7241 96.9158 59.8804 96.1446 64.9474C95.41 69.7734 96.1446 77.4474 96.1446 77.4474C96.1446 77.4474 91.4743 75.5654 89.1446 73.4474C86.5399 71.0795 85.3285 69.2625 84.1446 65.9474C82.5027 61.3503 82.6207 58.0851 84.1446 53.4475C86.257 47.0187 96.1446 40.9475 96.1446 40.9475C96.1446 40.9475 97.458 37.615 96.1446 36.4475C94.977 35.4097 92.1446 36.4475 92.1446 36.4475C92.1446 36.4475 86.8217 40.6049 84.1446 43.9475C79.9408 49.196 76.6446 59.4475 76.6446 59.4475C76.6446 59.4475 72.2506 53.4424 71.1446 48.9475C69.7418 43.2466 69.8813 39.3645 72.1446 33.9475C74.0725 29.3329 75.8371 26.4885 80.1446 23.9475C83.2864 22.094 85.4982 21.3452 89.1446 21.4475C93.0968 21.5583 98.6446 24.9475 98.6446 24.9475ZM136.145 92.4474C136.145 92.4474 136.342 88.7822 136.145 86.4474C135.471 78.4988 132.022 74.6743 128.645 67.4474C123.569 56.5859 120.408 50.4857 113.145 40.9475C108.036 34.2388 98.6446 24.9475 98.6446 24.9475" stroke="black" stroke-width="1.4"/>
<path d="M99.6445 27.4474C99.6445 27.4474 92.6559 28.1266 88.6445 29.9474C84.6967 31.7394 82.3675 33.0737 79.6445 36.4474C78.2144 38.2194 76.6445 41.4474 76.6445 41.4474" stroke="black" stroke-width="1.4" stroke-linecap="round"/>
<path d="M91.1445 57.9474C91.1445 57.9474 94.4024 49.3185 97.6445 44.4474C100.027 40.8677 104.645 35.9474 104.645 35.9474" stroke="black" stroke-width="1.4" stroke-linecap="round"/>
<path d="M107.645 69.9474C107.645 69.9474 109.891 60.3337 112.145 54.4474C113.208 51.67 115.145 47.4474 115.145 47.4474" stroke="black" stroke-width="1.4" stroke-linecap="round"/>
<path d="M125.644 62.4474C125.644 62.4474 124.226 64.8005 123.644 66.4474C122.085 70.8666 123.644 78.4474 123.644 78.4474" stroke="black" stroke-width="1.4" stroke-linecap="round"/>
<path d="M127.145 63.9474C127.145 63.9474 137.392 69.8478 138.645 75.9474C139.155 78.4339 138.645 82.4474 138.645 82.4474" stroke="black" stroke-width="1.4" stroke-linecap="round"/>
<path d="M118.645 45.4474C118.645 45.4474 129.505 45.5422 135.145 47.9474C137.395 48.9072 137.997 49.2759 140.145 50.4474C142.292 51.619 145.145 53.9474 145.145 53.9474" stroke="black" stroke-width="1.4" stroke-linecap="round"/>
<path d="M108.145 31.4474C108.145 31.4474 118.336 27.847 125.145 27.4474C132.616 27.0089 144.145 29.9474 144.145 29.9474" stroke="black" stroke-width="1.4" stroke-linecap="round"/>
<path d="M101.645 24.4474C101.645 24.4474 108.382 15.9944 114.145 12.4474C120.771 8.3689 133.145 6.44745 133.145 6.44745" stroke="black" stroke-width="1.4" stroke-linecap="round"/>
<path d="M56.1445 131.947C50.1342 133.078 39.1445 137.447 39.1445 137.447C39.1445 137.447 43.7441 139.122 46.1445 139.948C56.1445 143.386 74.6445 142.948 74.6445 142.948C74.6445 142.948 90.4792 143.201 99.1445 141.448C105.087 140.245 113.645 136.448 113.645 136.448C113.645 136.448 107.645 133.979 105.145 133.447C96.7407 131.661 93.6445 129.947 83.1445 129.947C72.6445 129.947 66.6988 129.962 56.1445 131.947Z" fill="black" stroke="black" stroke-width="1.4"/>
<path d="M37.1445 241.447H134.145" stroke="black" stroke-width="0.8"/>
<path d="M91.1445 238.947H133.145" stroke="black" stroke-width="0.8"/>
<path d="M98.1445 236.447H132.645" stroke="black" stroke-width="0.8"/>
<path d="M103.145 233.947H139.145" stroke="black" stroke-width="0.8"/>
<path d="M107.145 230.947H134.645" stroke="black" stroke-width="0.8"/>
<path d="M110.645 227.947H126.145" stroke="black" stroke-width="0.8"/>
<path d="M54.1445 236.947H42.1445" stroke="black" stroke-width="0.8"/>
<path d="M42.1445 243.447H125.145" stroke="black" stroke-width="0.8"/>
<path d="M41.6445 238.947H58.6445" stroke="black" stroke-width="0.8"/>
<path d="M49.6445 245.947H105.645" stroke="black" stroke-width="0.8"/>
<path d="M61.6445 85.9475C68.161 106.074 70.1445 139.447 70.1445 139.447H77.1445V129.947L79.1445 106.447C79.1445 106.447 80.4019 93.8486 82.1445 85.9475C83.4097 80.2112 85.1445 72.4475 86.1445 71.4475C87.1445 70.4475 83.6445 66.9475 83.6445 66.9475C83.6445 66.9475 78.9352 80.1696 77.1445 88.9475C75.61 96.4701 74.6445 108.447 74.6445 108.447L72.1445 132.947V123.947C72.1445 123.947 70.3426 102.165 66.1445 88.9475C63.9163 81.9322 60.1612 69.9137 56.6445 63.4475C53.9537 58.4996 50.6445 58.4474 50.6445 58.4474C50.6445 58.4474 54.6272 64.219 56.1445 67.9475C58.8236 74.5309 59.4552 79.1854 61.6445 85.9475Z" fill="white" stroke="black" stroke-width="1.4"/>
<path d="M97.1445 202.447C97.1445 203.552 96.6968 203.947 96.1445 203.947C95.5922 203.947 95.1445 203.552 95.1445 202.447C95.1445 201.343 95.5922 200.947 96.1445 200.947C96.6968 200.947 97.1445 201.343 97.1445 202.447Z" fill="black"/>
<path d="M102.145 202.447C102.145 203.552 101.697 203.947 101.145 203.947C100.592 203.947 100.145 203.552 100.145 202.447C100.145 201.343 100.592 200.947 101.145 200.947C101.697 200.947 102.145 201.343 102.145 202.447Z" fill="black"/>
<path d="M91.1445 204.947C91.1445 204.947 91.99 207.585 93.0364 208.738C94.1288 209.942 94.6403 210.252 96.0635 210.634C97.5084 211.021 98.7921 211.082 100.226 210.634C101.508 210.232 102.268 209.842 103.253 208.738C104.291 207.573 105.145 204.947 105.145 204.947" stroke="black" stroke-width="1.4" stroke-linecap="round"/>
</svg>
