<svg width="21" height="37" viewBox="0 0 21 37" fill="none" xmlns="http://www.w3.org/2000/svg">
<path d="M3.60139 18.8139C3.60139 18.8139 1.23494 8.98279 1.01707 6.49231C0.7641 3.60057 3.45037 1.26018 6.0601 1.03174C8.66984 0.80329 10.4728 1.80681 11.8444 4.03879C13.0151 5.94396 19.0926 29.5037 19.1798 30.4999C19.4218 33.2645 17.8505 35.6543 15.0893 35.3752C13.2982 35.1942 12.2834 34.2257 11.3411 32.6918C9.58532 29.834 4.89615 10.67 4.72174 8.67757C4.61271 7.43205 5.27025 6.2586 6.49612 6.01269C7.84986 5.74113 8.5757 6.83447 9.2046 8.28516C9.8335 9.73584 12.1126 18.5708 12.1126 18.5708" stroke="black" stroke-width="2" stroke-linecap="round"/>
</svg>
