<svg width="98" height="144" viewBox="0 0 98 144" fill="none" xmlns="http://www.w3.org/2000/svg">
<path d="M38 129.5C33.6417 133.923 30.8797 134.6 25.5 131.5C15.8442 125.935 24.6853 106.627 24.6853 106.627L75.0318 107.358C75.0318 107.358 84.4278 130.611 74.6143 135.892C69.1468 138.835 62.9445 140.209 58.7164 135.662C54.669 131.309 58.9374 120.443 58.9374 120.443L40.3898 120.174C40.3898 120.174 42.1721 125.266 38 129.5Z" fill="black" stroke="black"/>
<path d="M52.3777 5.39728C52.3777 5.39728 53.0984 15.7699 48.4406 18.3425C43.7828 20.9152 35.2394 14.8632 35.2394 14.8632C35.2394 14.8632 44.6756 19.4345 44.5989 24.7139C44.5223 29.9933 34.9574 34.2887 34.9574 34.2887C34.9574 34.2887 43.6729 28.4874 48.254 31.1941C52.8352 33.9009 51.1792 87.9555 51.1792 87.9555C51.1792 87.9555 50.1775 33.8623 54.8353 31.2897C59.4931 28.717 68.952 34.7822 68.952 34.7822C68.952 34.7822 59.5158 30.211 59.5925 24.9316C59.6691 19.6522 69.234 15.3568 69.234 15.3568C69.234 15.3568 60.5185 21.1581 55.9374 18.4514C51.3562 15.7446 52.3777 5.39728 52.3777 5.39728Z" fill="#FFB1EA"/>
<circle cx="38.855" cy="38.855" r="38.855" transform="matrix(-0.999895 -0.0145163 -0.0145163 0.999895 88.3066 39.9207)" fill="#E8715A"/>
<circle cx="9.71376" cy="9.71376" r="9.71376" transform="matrix(-0.999895 -0.0145163 -0.0145163 0.999895 67.7432 55.9937)" fill="white"/>
<circle cx="4.85688" cy="4.85688" r="4.85688" transform="matrix(-0.999895 -0.0145163 -0.0145163 0.999895 65.9277 60.2727)" fill="black"/>
<circle cx="9.71376" cy="9.71376" r="9.71376" transform="matrix(-0.999895 -0.0145163 -0.0145163 0.999895 48.3174 55.7117)" fill="white"/>
<circle cx="4.85688" cy="4.85688" r="4.85688" transform="matrix(-0.999895 -0.0145163 -0.0145163 0.999895 46.2788 60.0044)" fill="black"/>
<circle cx="3.98513" cy="3.98513" r="3.98513" transform="matrix(-0.999895 -0.0145163 -0.0145163 0.999895 51.8828 76.0647)" fill="white"/>
</svg>
